<?xml version="1.0" encoding="UTF-8"?>
<svg width="90px" height="90px" viewBox="0 0 90 90" version="1.1" xmlns="http://www.w3.org/2000/svg" xmlns:xlink="http://www.w3.org/1999/xlink">
    <!-- Generator: sketchtool 52.4 (67378) - http://www.bohemiancoding.com/sketch -->
    <title>2561FAFA-46CD-452D-BBFD-C3DA84BAA88B</title>
    <desc>Created with sketchtool.</desc>
    <defs>
        <linearGradient x1="336.555556%" y1="146.533333%" x2="-2.33333333%" y2="29.3333333%" id="linearGradient-1">
            <stop stop-color="#FFFFFF" offset="0%"></stop>
            <stop stop-color="#CCE2E6" offset="52%"></stop>
            <stop stop-color="#8FA1BB" offset="100%"></stop>
        </linearGradient>
        <linearGradient x1="50%" y1="18.3724794%" x2="50%" y2="95.432781%" id="linearGradient-2">
            <stop stop-color="#7D82A8" offset="0%"></stop>
            <stop stop-color="#9193AA" stop-opacity="0" offset="100%"></stop>
        </linearGradient>
        <linearGradient x1="4.91991428%" y1="50%" x2="79.4675734%" y2="98.8089324%" id="linearGradient-3">
            <stop stop-color="#F55151" offset="0%"></stop>
            <stop stop-color="#D6477C" offset="100%"></stop>
        </linearGradient>
        <linearGradient x1="50%" y1="108.76494%" x2="50%" y2="-34.7941567%" id="linearGradient-4">
            <stop stop-color="#273A9B" offset="0%"></stop>
            <stop stop-color="#202F65" offset="56%"></stop>
            <stop stop-color="#021E2F" offset="100%"></stop>
        </linearGradient>
        <linearGradient x1="50%" y1="326.358696%" x2="50%" y2="-203.804348%" id="linearGradient-5">
            <stop stop-color="#F3C57A" offset="0%"></stop>
            <stop stop-color="#F39369" offset="49%"></stop>
            <stop stop-color="#E94867" offset="100%"></stop>
        </linearGradient>
    </defs>
    <g id="Page-1" stroke="none" stroke-width="1" fill="none" fill-rule="evenodd">
        <g id="BlackFriday_light" transform="translate(-1040.000000, -3172.000000)">
            <g id="brain,-storming,-settings,-thought,-preferences" transform="translate(1040.000000, 3172.000000)">
                <path d="M71.1627907,59.5016611 C70.742927,57.1794726 71.1510604,54.7835785 72.3160892,52.7313716 C78.6566986,41.5180818 78.3693225,27.7376804 71.5667456,16.7984783 C64.7641688,5.85927616 52.5318851,-0.493147393 39.6706252,0.234304951 C26.8093652,0.961757295 15.3714129,8.65300525 9.84575225,20.2895112 L0.341718083,40.4722354 C-0.131558256,41.4887385 -0.0543749177,42.6763188 0.546493598,43.6230109 C1.14736211,44.569703 2.18912266,45.1450631 3.31039393,45.1495017 L4.27147603,45.1495017 C5.45101157,45.1495017 6.40721405,46.1057041 6.40721405,47.2852397 L6.40721405,56.2553393 C6.40721405,60.1070833 7.93731339,63.8010699 10.6609077,66.5246642 C13.384502,69.2482585 17.0784886,70.7783579 20.9302326,70.7783579 C25.7100983,70.773655 29.7635971,74.2897237 30.4342667,79.0223066 L32.0360702,90 L76.8865686,90 L71.1627907,59.5016611 Z" id="Path" fill="url(#linearGradient-1)"></path>
                <path d="M75.5196963,45.0213574 L30.9041291,45.0213574 L30.9041291,82.5462743 L32.0360702,90 L76.8865686,90 L71.1627907,59.5016611 C70.742927,57.1794726 71.1510604,54.7835785 72.3160892,52.7313716 C73.6869864,50.2980182 74.7624661,47.709697 75.5196963,45.0213574 Z" id="Path" fill="url(#linearGradient-2)"></path>
                <path d="M73.7053778,49.8790165 C73.690838,49.9114511 73.6762468,49.9438688 73.6616042,49.9762696 C72.8004885,50.0929803 71.9721133,50.3836383 71.2268628,50.8305648 L70.8637874,51.0441386 C69.3121713,51.9724218 68.1795743,53.4646949 67.7028951,55.2088277 L65.8661604,61.8723303 C65.4532389,63.3721901 64.0900698,64.4120435 62.5344091,64.4138586 L58.0280019,64.4138586 C56.4723412,64.4120435 55.1091721,63.3721901 54.6962506,61.8723303 L52.8168011,54.9952539 C52.3318679,53.3222681 51.2130848,51.904632 49.6986236,51.0441386 L49.549122,51.0441386 C48.0102911,50.0777289 46.1451609,49.77715 44.380636,50.2112008 L37.4822022,52.0265781 C35.9550893,52.4016935 34.3670815,51.6998116 33.6165164,50.3179877 L31.3739915,46.4095871 C30.5930137,45.0596772 30.8116727,43.3541372 31.907926,42.244898 L36.8841955,37.2045562 C38.1244773,35.8918211 38.792802,34.1403493 38.7422876,32.3350736 C38.7873374,30.5577613 38.1358533,28.8332447 36.9269103,27.529663 L31.9506407,22.4893213 C30.8543875,21.380082 30.6357285,19.6745421 31.4167062,18.3246322 L33.6592311,14.4162316 C34.4359233,13.0671603 36.0179318,12.4028915 37.5249169,12.7930707 L44.1243474,14.5230185 C45.9996585,15.0104012 47.9920774,14.7257699 49.6559089,13.7327954 C51.2460805,12.7832123 52.4030869,11.2507534 52.8808733,9.46131941 L54.6962506,2.84053156 C55.1091721,1.34067182 56.4723412,0.300818438 58.0280019,0.299003322 L62.5344091,0.299003322 C64.1077493,0.269070444 65.503113,1.30462333 65.9302326,2.81917418 L67.7456099,9.43996203 C68.2233962,11.2293961 69.3804026,12.7618549 70.9705743,13.7114381 C72.6344058,14.7044125 74.6268246,14.9890438 76.5021357,14.5016611 L83.1015662,12.7717133 C84.6085514,12.3815341 86.1905599,13.0458029 86.967252,14.3948742 L89.2524917,18.26056 C90.0334694,19.6104699 89.8148105,21.3160099 88.7185572,22.4252492 L83.9772188,27.2306597 C82.6175756,28.5822598 81.8495071,30.4179434 81.8414808,32.3350736 L81.798766,32.4418605 C81.8091208,34.3585173 82.5768326,36.1933483 83.934504,37.5462743 L88.654485,42.1594684 C89.7507383,43.2687077 89.9693973,44.9742477 89.1884196,46.3241576 L86.9458946,50.2325581 C86.1692025,51.5816295 84.587194,52.2458982 83.0802088,51.855719 L76.181775,50.0403417 C75.3664538,49.8234968 74.5253431,49.7719471 73.7053778,49.8790165 Z" id="Combined-Shape" fill="url(#linearGradient-3)"></path>
                <path d="M52.4750831,54.4186047 C52.6025916,54.6320072 52.7167175,54.8531261 52.8168011,55.0806834 L54.6962506,61.9577598 C55.1091721,63.4576196 56.4723412,64.497473 58.0280019,64.4992881 L62.5344091,64.4992881 C64.0900698,64.497473 65.4532389,63.4576196 65.8661604,61.9577598 L67.7028951,55.2942572 C67.8198575,55.0149604 67.9554253,54.7438248 68.1086853,54.4826768 L68.1086853,32.3350736 L52.4750831,32.3350736 L52.4750831,54.4186047 Z" id="Path" fill="url(#linearGradient-4)" opacity="0.274181548"></path>
                <circle id="Oval" fill="url(#linearGradient-5)" cx="60.2918842" cy="32.3991457" r="7.8595159"></circle>
            </g>
        </g>
    </g>
</svg>