<?xml version="1.0" encoding="UTF-8"?>
<svg width="65px" height="100px" viewBox="0 0 65 100" version="1.1" xmlns="http://www.w3.org/2000/svg" xmlns:xlink="http://www.w3.org/1999/xlink">
    <!-- Generator: sketchtool 52.4 (67378) - http://www.bohemiancoding.com/sketch -->
    <title>ABE04C6D-B93D-424C-9FB6-4F5B228094C9</title>
    <desc>Created with sketchtool.</desc>
    <defs>
        <linearGradient x1="102.253665%" y1="13.8290077%" x2="-5.88339757%" y2="112.049896%" id="linearGradient-1">
            <stop stop-color="#6A85B6" offset="0%"></stop>
            <stop stop-color="#374D6F" offset="100%"></stop>
            <stop stop-color="#374D6F" offset="100%"></stop>
        </linearGradient>
        <linearGradient x1="336.555556%" y1="146.533333%" x2="-2.33333333%" y2="29.3333333%" id="linearGradient-2">
            <stop stop-color="#FFFFFF" offset="0%"></stop>
            <stop stop-color="#CCE2E6" offset="52%"></stop>
            <stop stop-color="#8FA1BB" offset="100%"></stop>
        </linearGradient>
        <linearGradient x1="50%" y1="170.355556%" x2="50%" y2="-69.5111111%" id="linearGradient-3">
            <stop stop-color="#F3C57A" offset="0%"></stop>
            <stop stop-color="#F39369" offset="49%"></stop>
            <stop stop-color="#E94867" offset="100%"></stop>
        </linearGradient>
        <linearGradient x1="50%" y1="158.75543%" x2="50%" y2="-76.0921349%" id="linearGradient-4">
            <stop stop-color="#F3C57A" offset="0%"></stop>
            <stop stop-color="#F39369" offset="49%"></stop>
            <stop stop-color="#E94867" offset="100%"></stop>
        </linearGradient>
        <linearGradient x1="50%" y1="121.212121%" x2="50%" y2="-159.090909%" id="linearGradient-5">
            <stop stop-color="#F3C57A" offset="0%"></stop>
            <stop stop-color="#F39369" offset="49%"></stop>
            <stop stop-color="#E94867" offset="100%"></stop>
        </linearGradient>
        <linearGradient x1="49.8213062%" y1="373.158188%" x2="49.8213062%" y2="-104.444085%" id="linearGradient-6">
            <stop stop-color="#F3C57A" offset="0%"></stop>
            <stop stop-color="#F39369" offset="49%"></stop>
            <stop stop-color="#E94867" offset="100%"></stop>
        </linearGradient>
    </defs>
    <g id="Page-1" stroke="none" stroke-width="1" fill="none" fill-rule="evenodd">
        <g id="BlackFriday_light" transform="translate(-1053.000000, -3423.000000)">
            <g id="badge,-medal,-reward,-prize,-winner" transform="translate(1053.000000, 3423.000000)">
                <path d="M0.404761905,3.4047619 L0.404761905,29.9761905 C0.400954665,31.1914896 1.04521438,32.3166755 2.0952381,32.9285714 L30.6666667,49.4047619 C31.7201037,50.012964 33.0179916,50.012964 34.0714286,49.4047619 L62.6428571,32.9285714 C63.6928809,32.3166755 64.3371406,31.1914896 64.3333333,29.9761905 L64.3333333,3.4047619 C64.3333555,2.49762246 63.971374,1.62798006 63.3276985,0.98877448 C62.6840229,0.349568906 61.8118792,-0.00634363275 60.9047619,-2.62225137e-15 L3.76190476,-2.62225137e-15 C1.9001293,0.0260413559 0.404579789,1.54280433 0.404761905,3.4047619 Z" id="Path" fill="url(#linearGradient-1)"></path>
                <path d="M43.047619,0 L21.6190476,0 L21.6190476,44.1904762 L30.6428571,49.4047619 C31.6962941,50.012964 32.994182,50.012964 34.047619,49.4047619 L43.0714286,44.1904762 L43.047619,0 Z" id="Path" fill="url(#linearGradient-2)"></path>
                <circle id="Oval" fill="url(#linearGradient-3)" cx="32.3333333" cy="73.2142857" r="26.7857143"></circle>
                <path d="M51.9761905,75 L12.6904762,75 L12.6904762,91.3809524 C17.7445313,96.8748005 24.8683591,100.00102 32.3333333,100.00102 C39.7983075,100.00102 46.9221354,96.8748005 51.9761905,91.3809524 L51.9761905,75 Z" id="Path" fill="url(#linearGradient-4)"></path>
                <circle id="Oval" fill="url(#linearGradient-5)" cx="32.3333333" cy="73.2142857" r="19.6428571"></circle>
                <path d="M34.2619048,63.547619 L36.0952381,67.2380952 C36.4071296,67.8763412 37.0120776,68.321156 37.7142857,68.4285714 L41.8571429,69.047619 C42.6692747,69.1708851 43.3418612,69.7428137 43.5940435,70.5245789 C43.8462258,71.3063441 43.6346318,72.1634922 43.047619,72.7380952 L40.0952381,75.6190476 C39.5902066,76.1147725 39.3590926,76.8258926 39.4761905,77.5238095 L40.1666667,81.5714286 C40.3523724,82.3996258 40.037397,83.2599879 39.3608553,83.7725194 C38.6843136,84.285051 37.7708095,84.3553553 37.0238095,83.952381 L33.3809524,82.047619 C32.754163,81.7215218 32.0077418,81.7215218 31.3809524,82.047619 L27.7380952,83.952381 C26.9910953,84.3553553 26.0775912,84.285051 25.4010495,83.7725194 C24.7245078,83.2599879 24.4095324,82.3996258 24.5952381,81.5714286 L25.2857143,77.5238095 C25.4028122,76.8258926 25.1716982,76.1147725 24.6666667,75.6190476 L21.7142857,72.7380952 C21.1300916,72.176669 20.9079609,71.3362053 21.1384806,70.5594539 C21.3690004,69.7827024 22.0136458,69.1994755 22.8095238,69.047619 L26.8809524,68.452381 C27.5831605,68.3449655 28.1881085,67.9001508 28.5,67.2619048 L30.3333333,63.5714286 C30.6842466,62.8053825 31.4474491,62.3122538 32.2900289,62.3071473 C33.1326086,62.3020407 33.9017322,62.7858826 34.2619048,63.547619 Z" id="Path" fill="url(#linearGradient-6)"></path>
            </g>
        </g>
    </g>
</svg>