<svg width="631" height="426" xmlns="http://www.w3.org/2000/svg" xmlns:xlink="http://www.w3.org/1999/xlink"><defs><circle id="b" cx="60" cy="60" r="60"/><filter x="-128.3%" y="-112.5%" width="356.7%" height="356.7%" filterUnits="objectBoundingBox" id="a"><feMorphology radius="1" operator="dilate" in="SourceAlpha" result="shadowSpreadOuter1"/><feOffset dy="19" in="shadowSpreadOuter1" result="shadowOffsetOuter1"/><feGaussianBlur stdDeviation="47.5" in="shadowOffsetOuter1" result="shadowBlurOuter1"/><feComposite in="shadowBlurOuter1" in2="SourceAlpha" operator="out" result="shadowBlurOuter1"/><feColorMatrix values="0 0 0 0 0.0482053895 0 0 0 0 0.0482053895 0 0 0 0 0.0482053895 0 0 0 0.0800917832 0" in="shadowBlurOuter1"/></filter><path id="c" d="M0 .008h52.826V52.83H0z"/><linearGradient x1="50%" y1=".008%" x2="-47.262%" y2="181.165%" id="d"><stop stop-color="#FAD961" offset="0%"/><stop stop-color="#F76B1C" offset="100%"/></linearGradient><circle id="g" cx="30" cy="30" r="30"/><filter x="-145.8%" y="-125.8%" width="391.7%" height="391.7%" filterUnits="objectBoundingBox" id="f"><feMorphology radius="4" operator="dilate" in="SourceAlpha" result="shadowSpreadOuter1"/><feOffset dy="12" in="shadowSpreadOuter1" result="shadowOffsetOuter1"/><feGaussianBlur stdDeviation="23.5" in="shadowOffsetOuter1" result="shadowBlurOuter1"/><feComposite in="shadowBlurOuter1" in2="SourceAlpha" operator="out" result="shadowBlurOuter1"/><feColorMatrix values="0 0 0 0 0.0482053895 0 0 0 0 0.0482053895 0 0 0 0 0.0482053895 0 0 0 0.0800917832 0" in="shadowBlurOuter1"/></filter><linearGradient x1="50%" y1="0%" x2="50%" y2="100%" id="h"><stop stop-color="#0290CB" offset="0%"/><stop stop-color="#01579B" offset="100%"/></linearGradient><circle id="j" cx="37" cy="37" r="37"/><filter x="-118.2%" y="-102%" width="336.5%" height="336.5%" filterUnits="objectBoundingBox" id="i"><feMorphology radius="4" operator="dilate" in="SourceAlpha" result="shadowSpreadOuter1"/><feOffset dy="12" in="shadowSpreadOuter1" result="shadowOffsetOuter1"/><feGaussianBlur stdDeviation="23.5" in="shadowOffsetOuter1" result="shadowBlurOuter1"/><feComposite in="shadowBlurOuter1" in2="SourceAlpha" operator="out" result="shadowBlurOuter1"/><feColorMatrix values="0 0 0 0 0.0482053895 0 0 0 0 0.0482053895 0 0 0 0 0.0482053895 0 0 0 0.0800917832 0" in="shadowBlurOuter1"/></filter><path id="k" d="M0 0h45.502v24.964H0z"/><linearGradient x1="8.023%" y1="65.05%" x2="106.181%" y2="50%" id="l"><stop stop-color="#F55151" offset="0%"/><stop stop-color="#D6477C" offset="100%"/></linearGradient><circle id="o" cx="67" cy="67" r="67"/><filter x="-65.3%" y="-56.3%" width="230.6%" height="230.6%" filterUnits="objectBoundingBox" id="n"><feMorphology radius="4" operator="dilate" in="SourceAlpha" result="shadowSpreadOuter1"/><feOffset dy="12" in="shadowSpreadOuter1" result="shadowOffsetOuter1"/><feGaussianBlur stdDeviation="23.5" in="shadowOffsetOuter1" result="shadowBlurOuter1"/><feComposite in="shadowBlurOuter1" in2="SourceAlpha" operator="out" result="shadowBlurOuter1"/><feColorMatrix values="0 0 0 0 0.0482053895 0 0 0 0 0.0482053895 0 0 0 0 0.0482053895 0 0 0 0.0800917832 0" in="shadowBlurOuter1"/></filter><linearGradient x1="104.999%" y1="0%" x2="10.985%" y2="100%" id="p"><stop stop-color="#FDC53B" offset="0%"/><stop stop-color="#F9921B" offset="100%"/></linearGradient><circle id="r" cx="31" cy="31" r="31"/><filter x="-140.3%" y="-121%" width="380.6%" height="380.6%" filterUnits="objectBoundingBox" id="q"><feMorphology radius="3.5" operator="dilate" in="SourceAlpha" result="shadowSpreadOuter1"/><feOffset dy="12" in="shadowSpreadOuter1" result="shadowOffsetOuter1"/><feGaussianBlur stdDeviation="23.5" in="shadowOffsetOuter1" result="shadowBlurOuter1"/><feColorMatrix values="0 0 0 0 0.0482053895 0 0 0 0 0.0482053895 0 0 0 0 0.0482053895 0 0 0 0.17739292 0" in="shadowBlurOuter1"/></filter><linearGradient x1="145.926%" y1="-36.812%" x2="50%" y2="100%" id="s"><stop stop-color="#8FC1FF" offset="0%"/><stop stop-color="#568EFE" offset="100%"/></linearGradient><linearGradient x1="126.302%" y1="-36.812%" x2="50%" y2="100%" id="t"><stop stop-color="#8FC1FF" offset="0%"/><stop stop-color="#568EFE" offset="100%"/></linearGradient></defs><g transform="translate(92 73)" fill="none" fill-rule="evenodd"><use fill="#000" filter="url(#a)" xlink:href="#b"/><use stroke="#E7E9ED" fill="#FFF" xlink:href="#b"/><g transform="translate(33.962 33.25)"><mask id="e" fill="#fff"><use xlink:href="#c"/></mask><path d="M13.867 44.103c.022.062.032.103.05.14.815 1.645 1.998 2.934 3.7 3.668 2.205.953 4.474.991 6.742.263 1.937-.622 3.215-1.95 3.872-3.878.367-1.075.468-2.187.468-3.313v-16.42c0-.097-.009-.194-.013-.29h-4.952v.397c0 5.415.002 10.83-.004 16.244 0 .433-.027.871-.094 1.3-.106.69-.35 1.35-1.022 1.665-1.072.503-2.155.51-3.17-.18-.48-.326-.803-.801-1.105-1.286-.15-.24-.291-.484-.447-.745l-4.025 2.435zm17.53-.536c.011.052.012.07.019.084.024.053.049.106.077.157.788 1.444 1.863 2.627 3.301 3.426 2.993 1.66 6.142 1.838 9.362.793 1.56-.507 2.81-1.47 3.636-2.919.676-1.185.875-2.475.823-3.823-.08-2.056-.874-3.752-2.49-5.048-1.14-.914-2.435-1.556-3.76-2.144-.901-.4-1.817-.773-2.698-1.213a5.767 5.767 0 0 1-1.317-.9c-.918-.847-.927-3.013.924-3.554 1.094-.32 2.48-.11 3.388 1.042.232.294.437.61.67.94l3.843-2.467c-.85-1.489-1.938-2.687-3.526-3.334-1.908-.777-3.882-.845-5.86-.34-3.007.767-4.868 3.137-4.922 6.178-.046 2.577.96 4.624 3.123 6.04.808.528 1.683.961 2.553 1.384 1.098.533 2.233.988 3.33 1.522a4.76 4.76 0 0 1 1.139.807c.607.568.756 1.31.582 2.101-.199.898-.84 1.416-1.67 1.684-1.451.468-2.875.355-4.225-.372-.907-.49-1.554-1.256-2.11-2.106-.054-.081-.11-.161-.178-.261-1.35.78-2.679 1.55-4.014 2.323zM0 52.83h52.826V.008H0V52.83z" fill="url(#d)" mask="url(#e)"/></g><path d="M65.359 76.817l4.014-2.324c.068.1.125.18.178.262.556.85 1.203 1.616 2.11 2.105 1.35.727 2.774.84 4.226.372.829-.268 1.47-.786 1.67-1.684.174-.79.025-1.533-.583-2.1a4.76 4.76 0 0 0-1.14-.808c-1.096-.534-2.23-.99-3.328-1.522-.87-.422-1.746-.856-2.553-1.384-2.164-1.416-3.17-3.463-3.124-6.04.054-3.04 1.915-5.41 4.922-6.178 1.979-.505 3.952-.437 5.86.34 1.589.647 2.677 1.845 3.526 3.334l-3.842 2.467c-.234-.33-.438-.646-.67-.94-.909-1.152-2.295-1.36-3.389-1.041-1.85.54-1.842 2.706-.923 3.553.387.357.844.664 1.316.9.881.44 1.797.813 2.698 1.213 1.326.588 2.62 1.23 3.76 2.144 1.617 1.296 2.41 2.993 2.49 5.049.053 1.347-.147 2.637-.823 3.823-.826 1.449-2.076 2.411-3.636 2.918-3.22 1.046-6.368.868-9.361-.793-1.439-.799-2.514-1.982-3.302-3.425-.028-.052-.052-.105-.077-.158-.007-.014-.007-.031-.019-.083M47.83 77.353c1.336-.81 2.671-1.617 4.024-2.436.156.26.297.505.447.745.302.485.625.96 1.105 1.286 1.016.69 2.098.683 3.17.18.672-.315.916-.975 1.023-1.666.066-.427.093-.865.094-1.299.006-5.414.004-10.829.004-16.244v-.396h4.951c.005.095.013.192.013.29v16.42c0 1.126-.1 2.237-.467 3.313-.657 1.927-1.936 3.255-3.872 3.877-2.268.728-4.538.69-6.743-.262-1.702-.735-2.885-2.023-3.699-3.669-.018-.036-.028-.077-.05-.14" fill="#323330"/><g transform="translate(129 177)"><use fill="#000" filter="url(#f)" xlink:href="#g"/><use stroke="#E7E9ED" fill="#FFF" xlink:href="#g"/></g><g transform="translate(143.815 191.074)" fill="url(#h)" fill-rule="nonzero"><path d="M15.639 23.081v.928h7.398v3.332c0 .01-.005.02-.007.03-.164.933-.691 1.63-1.458 2.168-.948.666-2.037.988-3.153 1.242-2.606.595-5.15.388-7.606-.64-.584-.243-1.13-.625-1.618-1.031-.699-.581-1.036-1.372-1.037-2.283-.002-2.35-.025-4.7.007-7.049.028-2.113 1.695-3.697 3.841-3.703 2.386-.007 4.772-.033 7.158.006 2.411.04 4.46-1.77 4.793-4.023A5.62 5.62 0 0 0 24 11.27c.005-.921.002-1.843.002-2.765V8.15h1.077c.555 0 1.11.004 1.666 0 1.322-.013 2.307.555 2.981 1.665.493.81.738 1.706.947 2.616.32 1.399.515 2.81.41 4.247-.125 1.69-.622 3.277-1.443 4.76-.63 1.137-1.63 1.652-2.943 1.648-3.548-.012-7.096-.004-10.644-.004h-.414zm4.195 2.804a1.377 1.377 0 0 0-1.414 1.373 1.404 1.404 0 0 0 1.374 1.424 1.405 1.405 0 0 0 1.416-1.384 1.381 1.381 0 0 0-1.376-1.413z"/><path d="M15.468 7.923V6.99H8.036c-.014-.093-.032-.152-.031-.21.004-1.041-.017-2.082.023-3.122.062-1.656.734-2.553 2.349-2.999.976-.269 1.99-.445 3-.547a21.387 21.387 0 0 1 5.947.225c1.143.204 2.116.728 2.852 1.635.513.633.783 1.357.783 2.174 0 2.357.011 4.713-.004 7.07-.013 2.16-1.65 3.75-3.837 3.754-2.413.004-4.827-.001-7.24.002-2.356.002-4.295 1.58-4.738 3.866a5.059 5.059 0 0 0-.07.913c-.01.948-.004 1.897-.004 2.846v.366c-.23 0-.422.002-.616 0-.763-.007-1.527.013-2.288-.029-1.197-.065-2.096-.661-2.76-1.63-.554-.81-.797-1.733-1.023-2.668-.585-2.418-.475-4.813.207-7.193.634-2.215 2.357-3.513 4.692-3.517 3.27-.006 6.539-.002 9.808-.002h.382zM11.26 2.286a1.392 1.392 0 0 0-1.382 1.42 1.4 1.4 0 0 0 1.41 1.397 1.408 1.408 0 0 0 1.388-1.424 1.401 1.401 0 0 0-1.416-1.393z"/></g><g><g transform="translate(311 214)"><use fill="#000" filter="url(#i)" xlink:href="#j"/><use stroke="#E7E9ED" fill="#FFF" xlink:href="#j"/></g><g transform="translate(325 238)"><mask id="m" fill="#fff"><use xlink:href="#k"/></mask><path d="M37.446 11.013h2.205v-1.47h-2.205v1.47zm-2.204-2.196h1.47V6.613h-1.47v2.204zm0 5.135h1.47v-2.205h-1.47v2.205zm-2.94-2.94h2.205V9.544h-2.204v1.47zm-10.277 1.47h1.47V3.674h-1.47v8.808zm-8.808-1.47h-2.94v2.94H8.809v-2.94H5.87V9.544h2.94v-2.93h1.469v2.93h2.939v1.47zM33.037 0h-6.603l-7.348.009h-6.604C5.6 0 0 5.6 0 12.482v5.87c0 3.646 2.966 6.612 6.604 6.612h2.115c3.35 0 6.173-2.509 6.559-5.824a3.446 3.446 0 0 1 3.405-2.984h8.136a3.44 3.44 0 0 1 3.405 2.975 6.607 6.607 0 0 0 6.56 5.833h2.114a6.61 6.61 0 0 0 6.604-6.604v-5.869C45.52 5.601 39.919 0 33.038 0z" fill="url(#l)" mask="url(#m)"/></g></g><g><g transform="translate(214 46)"><use fill="#000" filter="url(#n)" xlink:href="#o"/><use stroke="#E7E9ED" fill="#FFF" xlink:href="#o"/></g><path d="M.61 2.076l4.18 53.102c.087.779.61 1.47 1.393 1.73l22.033 6.919c.349.087.784.087 1.22 0l22.032-6.919a2.057 2.057 0 0 0 1.394-1.73l4.18-53.102C56.955.95 56.084 0 54.952 0H2.526A1.915 1.915 0 0 0 .61 2.076zm45.546 16.519H18.898l.784 7.524h25.865l-1.655 21.449-15.153 4.843-15.153-4.757-.871-11.243h7.925v5.535l8.273 2.249 8.273-2.25.61-8.734H12.453L10.8 11.762h35.967l-.61 6.833z" transform="translate(253 83)" fill="url(#p)" fill-rule="nonzero"/></g><g><g transform="translate(425 118)"><use fill="#000" filter="url(#q)" xlink:href="#r"/><use fill="#FFF" xlink:href="#r"/></g><g fill-rule="nonzero"><path d="M3.422 4.525h6.033c1.77.015 3.054.526 3.849 1.534.795 1.008 1.058 2.384.788 4.13a7.94 7.94 0 0 1-.698 2.346 6.975 6.975 0 0 1-1.44 2.076c-.751.782-1.554 1.278-2.41 1.489-.855.21-1.74.316-2.655.316H4.187l-.855 4.287H.203l3.22-16.178m2.633 2.572l-1.35 6.77c.09.014.18.022.27.022h.314c1.441.015 2.642-.128 3.602-.429.96-.316 1.606-1.414 1.936-3.294.27-1.58 0-2.49-.81-2.73-.796-.241-1.794-.354-2.994-.339-.18.015-.353.023-.518.023h-.473l.023-.023" fill="url(#s)" transform="translate(435 138)"/><path d="M17.657.216h3.106l-.878 4.31h2.792c1.53.03 2.67.346 3.421.948.766.601.99 1.745.676 3.43l-1.509 7.513h-3.151l1.44-7.175c.15-.752.106-1.286-.134-1.602-.24-.316-.758-.474-1.554-.474l-2.498-.023-1.846 9.274h-3.107l3.242-16.2" fill="url(#t)" transform="translate(435 138)"/><path d="M30.11 4.525h6.032c1.771.015 3.054.526 3.85 1.534.795 1.008 1.058 2.384.787 4.13a7.94 7.94 0 0 1-.697 2.346 6.975 6.975 0 0 1-1.441 2.076c-.75.782-1.553 1.278-2.409 1.489-.855.21-1.74.316-2.656.316h-2.701l-.855 4.287h-3.13l3.22-16.178m2.633 2.572l-1.35 6.77c.09.014.18.022.27.022h.315c1.44.015 2.641-.128 3.602-.429.96-.316 1.605-1.414 1.936-3.294.27-1.58 0-2.49-.81-2.73-.796-.241-1.794-.354-2.995-.339-.18.015-.352.023-.517.023h-.473l.022-.023" fill="url(#s)" transform="translate(435 138)"/></g></g><circle fill="#FFF" opacity=".745" cx="425" cy="46" r="32"/><circle fill="#FFF" opacity=".745" cx="192" cy="35" r="21"/></g></svg>